M48
;DRILL file {KiCad (5.0.2)-1} date 03/03/2019 17:07:24
;FORMAT={-:-/ absolute / metric / decimal}
FMAT,2
METRIC,TZ
T1C0.800
T2C0.900
T3C1.000
%
G90
G05
T1
X34.29Y-17.526
X34.29Y-21.59
X35.306Y-29.21
X35.306Y-39.37
X35.306Y-50.292
X50.546Y-30.505
X50.546Y-38.608
X56.896Y-29.21
X58.166Y-42.672
X58.166Y-52.07
X61.976Y-19.558
X61.976Y-23.622
X68.2Y-25.782
X73.711Y-25.857
X54.776Y-32.132
X54.776Y-34.672
X54.776Y-37.212
X54.776Y-39.752
X62.396Y-32.132
X62.396Y-34.672
X62.396Y-37.212
X62.396Y-39.752
X75.096Y-9.272
X75.096Y-16.892
X81.28Y-34.29
X81.28Y-41.91
X23.026Y-22.052
X23.026Y-27.052
X14.216Y-15.622
X19.216Y-15.622
X45.886Y-23.242
X53.506Y-23.242
X45.886Y-27.052
X50.886Y-27.052
X24.296Y-34.672
X24.296Y-37.212
X24.296Y-39.752
X24.296Y-42.292
X31.916Y-34.672
X31.916Y-37.212
X31.916Y-39.752
X31.916Y-42.292
X66.04Y-34.29
X66.04Y-41.91
X48.426Y-19.432
X56.046Y-19.432
X61.126Y-8.002
X63.626Y-8.002
X85.09Y-34.29
X85.09Y-41.91
X66.206Y-18.162
X66.206Y-25.782
X31.916Y-14.352
X39.536Y-14.352
X6.516Y-27.052
X14.136Y-27.052
X68.746Y-8.002
X71.246Y-8.002
X38.266Y-32.132
X38.266Y-34.672
X38.266Y-37.212
X38.266Y-39.752
X45.886Y-32.132
X45.886Y-34.672
X45.886Y-37.212
X45.886Y-39.752
X14.136Y-5.462
X14.136Y-10.462
X45.886Y-6.732
X45.886Y-14.352
X38.266Y-19.432
X45.886Y-19.432
X76.874Y-29.592
X84.494Y-29.592
X48.26Y-44.45
X50.8Y-46.99
X53.34Y-44.45
X56.046Y-6.812
X56.046Y-11.812
X6.516Y-34.672
X10.016Y-34.672
X58.674Y-19.431
X58.674Y-27.051
X77.47Y-34.29
X77.47Y-41.91
X19.216Y-27.052
X19.216Y-34.672
X28.106Y-21.972
X28.106Y-29.592
X76.874Y-25.782
X84.494Y-25.782
T2
X81.526Y-14.352
X84.026Y-9.352
X86.526Y-14.352
T3
X25.566Y-10.542
X25.566Y-13.082
X25.566Y-15.622
X69.85Y-31.75
X69.85Y-34.29
X69.85Y-36.83
X42.076Y-4.192
X42.076Y-6.732
X42.076Y-9.272
X71.286Y-18.162
X71.286Y-20.702
X3.976Y-13.082
X3.976Y-15.622
X9.056Y-19.432
X9.056Y-21.972
X81.446Y-20.702
X83.986Y-20.702
X86.526Y-20.702
X52.236Y-9.272
X52.236Y-11.812
X73.66Y-34.29
X73.66Y-36.83
X20.486Y-5.462
X20.486Y-8.002
X20.486Y-10.542
X63.666Y-14.352
X66.206Y-14.352
X68.746Y-14.352
X9.056Y-10.542
X9.056Y-13.082
X15.406Y-32.132
X15.406Y-34.672
X15.406Y-37.212
X3.976Y-19.432
X3.976Y-21.972
X15.406Y-20.702
X17.946Y-20.702
X49.696Y-4.192
X52.236Y-4.192
X7.786Y-5.462
X10.326Y-5.462
T0
M30
