M48
;DRILL file {KiCad (5.0.2)-1} date 03/03/2019 16:40:31
;FORMAT={-:-/ absolute / inch / decimal}
FMAT,2
INCH,TZ
T1C0.0315
T2C0.0394
T3C0.0512
%
G90
G05
T1
X1.39Y-1.54
X1.39Y-1.98
X1.48Y-1.15
X1.96Y-1.23
X2.0306Y-1.41
X2.29Y-1.15
X2.29Y-1.71
X2.29Y-2.05
X2.44Y-0.77
X2.44Y-0.93
X2.68Y-1.015
X2.845Y-1.02
X3.35Y-1.35
X3.35Y-1.65
X1.9066Y-0.765
X2.2066Y-0.765
X1.8066Y-0.915
X2.1066Y-0.915
X1.5066Y-1.265
X1.5066Y-1.365
X1.5066Y-1.465
X1.5066Y-1.565
X1.8066Y-1.265
X1.8066Y-1.365
X1.8066Y-1.465
X1.8066Y-1.565
X0.9066Y-0.8682
X0.9066Y-1.065
X1.8066Y-1.065
X2.0034Y-1.065
X0.2566Y-1.065
X0.5566Y-1.065
X1.2566Y-0.565
X1.5566Y-0.565
X2.7066Y-0.315
X2.805Y-0.315
X0.9566Y-1.365
X0.9566Y-1.465
X0.9566Y-1.565
X0.9566Y-1.665
X1.2566Y-1.365
X1.2566Y-1.465
X1.2566Y-1.565
X1.2566Y-1.665
X3.0066Y-1.165
X3.3066Y-1.165
X2.4066Y-0.315
X2.505Y-0.315
X3.2Y-1.35
X3.2Y-1.65
X3.0066Y-1.015
X3.3066Y-1.015
X3.05Y-1.35
X3.05Y-1.65
X1.8066Y-0.265
X1.8066Y-0.565
X2.6066Y-0.715
X2.6066Y-1.015
X2.1566Y-1.265
X2.1566Y-1.365
X2.1566Y-1.465
X2.1566Y-1.565
X2.4566Y-1.265
X2.4566Y-1.365
X2.4566Y-1.465
X2.4566Y-1.565
X2.3066Y-0.765
X2.3066Y-1.065
X0.5597Y-0.615
X0.7566Y-0.615
X0.7566Y-1.065
X0.7566Y-1.365
X1.5066Y-0.765
X1.8066Y-0.765
X2.6Y-1.35
X2.6Y-1.65
X0.2566Y-1.365
X0.3943Y-1.365
X2.2066Y-0.2682
X2.2066Y-0.465
X0.5566Y-0.215
X0.5566Y-0.4119
X1.1066Y-0.865
X1.1066Y-1.165
X2.9566Y-0.365
X2.9566Y-0.665
X1.9Y-1.75
X2.Y-1.85
X2.1Y-1.75
T2
X2.5066Y-0.565
X2.6066Y-0.565
X2.7066Y-0.565
X2.0566Y-0.365
X2.0566Y-0.465
X0.8066Y-0.215
X0.8066Y-0.315
X0.8066Y-0.415
X1.9566Y-0.165
X2.0566Y-0.165
X2.8066Y-0.715
X2.8066Y-0.815
X2.75Y-1.25
X2.75Y-1.35
X2.75Y-1.45
X0.6066Y-1.265
X0.6066Y-1.365
X0.6066Y-1.465
X0.3566Y-0.765
X0.3566Y-0.865
X3.2066Y-0.815
X3.3066Y-0.815
X3.4066Y-0.815
X0.3566Y-0.415
X0.3566Y-0.515
X1.0066Y-0.415
X1.0066Y-0.515
X1.0066Y-0.615
X2.9Y-1.35
X2.9Y-1.45
X1.6566Y-0.165
X1.6566Y-0.265
X1.6566Y-0.365
X0.1566Y-0.515
X0.1566Y-0.615
X0.1566Y-0.765
X0.1566Y-0.865
X0.6066Y-0.815
X0.7066Y-0.815
X0.3066Y-0.215
X0.4066Y-0.215
T3
X3.2097Y-0.565
X3.3081Y-0.1713
X3.4066Y-0.565
T0
M30
