G04 #@! TF.GenerationSoftware,KiCad,Pcbnew,(5.0.2)-1*
G04 #@! TF.CreationDate,2019-03-03T17:40:35+00:00*
G04 #@! TF.ProjectId,flipped,666c6970-7065-4642-9e6b-696361645f70,rev?*
G04 #@! TF.SameCoordinates,Original*
G04 #@! TF.FileFunction,Copper,L1,Top*
G04 #@! TF.FilePolarity,Positive*
%FSLAX46Y46*%
G04 Gerber Fmt 4.6, Leading zero omitted, Abs format (unit mm)*
G04 Created by KiCad (PCBNEW (5.0.2)-1) date 03/03/2019 17:40:35*
%MOMM*%
%LPD*%
G01*
G04 APERTURE LIST*
G04 #@! TA.AperFunction,ComponentPad*
%ADD10R,2.400000X1.600000*%
G04 #@! TD*
G04 #@! TA.AperFunction,ComponentPad*
%ADD11O,2.400000X1.600000*%
G04 #@! TD*
G04 #@! TA.AperFunction,ComponentPad*
%ADD12C,1.600000*%
G04 #@! TD*
G04 #@! TA.AperFunction,ComponentPad*
%ADD13R,1.600000X1.600000*%
G04 #@! TD*
G04 #@! TA.AperFunction,ComponentPad*
%ADD14O,1.600000X1.600000*%
G04 #@! TD*
G04 #@! TA.AperFunction,ComponentPad*
%ADD15R,1.700000X1.700000*%
G04 #@! TD*
G04 #@! TA.AperFunction,ComponentPad*
%ADD16O,1.700000X1.700000*%
G04 #@! TD*
G04 #@! TA.AperFunction,ComponentPad*
%ADD17C,1.500000*%
G04 #@! TD*
G04 #@! TA.AperFunction,ComponentPad*
%ADD18R,1.500000X1.500000*%
G04 #@! TD*
G04 #@! TA.AperFunction,ComponentPad*
%ADD19C,1.620000*%
G04 #@! TD*
G04 #@! TA.AperFunction,ViaPad*
%ADD20C,1.700000*%
G04 #@! TD*
G04 #@! TA.AperFunction,Conductor*
%ADD21C,0.600000*%
G04 #@! TD*
G04 APERTURE END LIST*
D10*
G04 #@! TO.P,U3,1*
G04 #@! TO.N,Net-(U3-Pad1)*
X58485367Y-36504840D03*
D11*
G04 #@! TO.P,U3,5*
G04 #@! TO.N,Net-(U3-Pad5)*
X50865367Y-44124840D03*
G04 #@! TO.P,U3,2*
G04 #@! TO.N,Net-(D1-Pad1)*
X58485367Y-39044840D03*
G04 #@! TO.P,U3,6*
G04 #@! TO.N,Net-(D1-Pad2)*
X50865367Y-41584840D03*
G04 #@! TO.P,U3,3*
G04 #@! TO.N,GNDREF*
X58485367Y-41584840D03*
G04 #@! TO.P,U3,7*
G04 #@! TO.N,+15V*
X50865367Y-39044840D03*
G04 #@! TO.P,U3,4*
G04 #@! TO.N,-15V*
X58485367Y-44124840D03*
G04 #@! TO.P,U3,8*
G04 #@! TO.N,Net-(U3-Pad8)*
X50865367Y-36504840D03*
G04 #@! TD*
D12*
G04 #@! TO.P,C1,2*
G04 #@! TO.N,Net-(C1-Pad2)*
X36895367Y-28884840D03*
G04 #@! TO.P,C1,1*
G04 #@! TO.N,Net-(C1-Pad1)*
X31895367Y-28884840D03*
G04 #@! TD*
G04 #@! TO.P,C2,1*
G04 #@! TO.N,Net-(C2-Pad1)*
X59755367Y-28884840D03*
G04 #@! TO.P,C2,2*
G04 #@! TO.N,Net-(C2-Pad2)*
X59755367Y-23884840D03*
G04 #@! TD*
G04 #@! TO.P,C3,2*
G04 #@! TO.N,Net-(C3-Pad2)*
X26735367Y-13644840D03*
G04 #@! TO.P,C3,1*
G04 #@! TO.N,Net-(C3-Pad1)*
X26735367Y-8644840D03*
G04 #@! TD*
G04 #@! TO.P,C4,1*
G04 #@! TO.N,Net-(C4-Pad1)*
X63565367Y-17454840D03*
G04 #@! TO.P,C4,2*
G04 #@! TO.N,Net-(C4-Pad2)*
X68565367Y-17454840D03*
G04 #@! TD*
G04 #@! TO.P,C9,1*
G04 #@! TO.N,Net-(C9-Pad1)*
X68645367Y-7294840D03*
G04 #@! TO.P,C9,2*
G04 #@! TO.N,Net-(C9-Pad2)*
X68645367Y-12294840D03*
G04 #@! TD*
D13*
G04 #@! TO.P,C12,1*
G04 #@! TO.N,Net-(C12-Pad1)*
X76265367Y-36504840D03*
D12*
G04 #@! TO.P,C12,2*
G04 #@! TO.N,Net-(C12-Pad2)*
X72765367Y-36504840D03*
G04 #@! TD*
D13*
G04 #@! TO.P,D1,1*
G04 #@! TO.N,Net-(D1-Pad1)*
X-2308242Y-36122590D03*
D14*
G04 #@! TO.P,D1,2*
G04 #@! TO.N,Net-(D1-Pad2)*
X-2308242Y-43742590D03*
G04 #@! TD*
D15*
G04 #@! TO.P,J1,T*
G04 #@! TO.N,GNDREF*
X73725367Y-14914840D03*
D16*
G04 #@! TO.P,J1,S*
G04 #@! TO.N,Net-(C9-Pad2)*
X73725367Y-12374840D03*
G04 #@! TD*
D15*
G04 #@! TO.P,J2,T*
G04 #@! TO.N,GNDREF*
X33085367Y-6024840D03*
D16*
G04 #@! TO.P,J2,S*
G04 #@! TO.N,Net-(C3-Pad2)*
X30545367Y-6024840D03*
G04 #@! TD*
D15*
G04 #@! TO.P,J3,T*
G04 #@! TO.N,GNDREF*
X78805367Y-14914840D03*
D16*
G04 #@! TO.P,J3,S*
G04 #@! TO.N,Net-(C4-Pad2)*
X78805367Y-17454840D03*
G04 #@! TD*
G04 #@! TO.P,J4,S*
G04 #@! TO.N,GNDREF*
X11495367Y-22534840D03*
D15*
G04 #@! TO.P,J4,T*
G04 #@! TO.N,Net-(J4-PadT)*
X11495367Y-19994840D03*
G04 #@! TD*
G04 #@! TO.P,J5,T*
G04 #@! TO.N,Net-(J5-PadT)*
X9121758Y-38662590D03*
D16*
G04 #@! TO.P,J5,S*
G04 #@! TO.N,GNDREF*
X9121758Y-36122590D03*
G04 #@! TD*
G04 #@! TO.P,J6,S*
G04 #@! TO.N,GNDREF*
X73725367Y-21264840D03*
D15*
G04 #@! TO.P,J6,T*
G04 #@! TO.N,Net-(J6-PadT)*
X73725367Y-23804840D03*
G04 #@! TD*
D16*
G04 #@! TO.P,J7,S*
G04 #@! TO.N,GNDREF*
X78805367Y-21264840D03*
D15*
G04 #@! TO.P,J7,T*
G04 #@! TO.N,Net-(C12-Pad1)*
X78805367Y-23804840D03*
G04 #@! TD*
D12*
G04 #@! TO.P,R1,1*
G04 #@! TO.N,Net-(R1-Pad1)*
X24107758Y-21263590D03*
D14*
G04 #@! TO.P,R1,2*
G04 #@! TO.N,GNDREF*
X24107758Y-28883590D03*
G04 #@! TD*
G04 #@! TO.P,R2,2*
G04 #@! TO.N,Net-(R19-PAD2-Pad2)*
X36895367Y-8564840D03*
D12*
G04 #@! TO.P,R2,1*
G04 #@! TO.N,Net-(C1-Pad2)*
X36895367Y-16184840D03*
G04 #@! TD*
G04 #@! TO.P,R3,1*
G04 #@! TO.N,Net-(J6-PadT)*
X76265367Y-28884840D03*
D14*
G04 #@! TO.P,R3,2*
G04 #@! TO.N,Net-(C2-Pad1)*
X68645367Y-28884840D03*
G04 #@! TD*
G04 #@! TO.P,R4,2*
G04 #@! TO.N,Net-(R20-PAD3-Pad2)*
X44515367Y-21264840D03*
D12*
G04 #@! TO.P,R4,1*
G04 #@! TO.N,Net-(C1-Pad2)*
X36895367Y-21264840D03*
G04 #@! TD*
G04 #@! TO.P,R5,1*
G04 #@! TO.N,Net-(R1-Pad1)*
X26735367Y-21264840D03*
D14*
G04 #@! TO.P,R5,2*
G04 #@! TO.N,Net-(C1-Pad1)*
X34355367Y-21264840D03*
G04 #@! TD*
G04 #@! TO.P,R6,2*
G04 #@! TO.N,Net-(Q1-Pad1)*
X5311758Y-43742590D03*
D12*
G04 #@! TO.P,R6,1*
G04 #@! TO.N,GNDREF*
X5311758Y-36122590D03*
G04 #@! TD*
D14*
G04 #@! TO.P,R7,2*
G04 #@! TO.N,Net-(R4-LEVEL1-Pad1)*
X63565367Y-36504840D03*
D12*
G04 #@! TO.P,R7,1*
G04 #@! TO.N,Net-(C2-Pad1)*
X63565367Y-28884840D03*
G04 #@! TD*
G04 #@! TO.P,R8,1*
G04 #@! TO.N,Net-(C2-Pad1)*
X54675367Y-31424840D03*
D14*
G04 #@! TO.P,R8,2*
G04 #@! TO.N,Net-(C2-Pad2)*
X54675367Y-23804840D03*
G04 #@! TD*
D12*
G04 #@! TO.P,R9,1*
G04 #@! TO.N,Net-(C1-Pad2)*
X43245367Y-16184840D03*
D14*
G04 #@! TO.P,R9,2*
G04 #@! TO.N,Net-(R18-PAD1-Pad2)*
X50865367Y-16184840D03*
G04 #@! TD*
D12*
G04 #@! TO.P,R10,1*
G04 #@! TO.N,Net-(R10-Pad1)*
X16575367Y-27614840D03*
D14*
G04 #@! TO.P,R10,2*
G04 #@! TO.N,GNDREF*
X16575367Y-19994840D03*
G04 #@! TD*
D12*
G04 #@! TO.P,R12,1*
G04 #@! TO.N,Net-(D1-Pad1)*
X5907367Y-31424840D03*
D14*
G04 #@! TO.P,R12,2*
G04 #@! TO.N,Net-(J4-PadT)*
X-1712633Y-31424840D03*
G04 #@! TD*
G04 #@! TO.P,R13,2*
G04 #@! TO.N,Net-(R13-Pad2)*
X16741758Y-36122590D03*
D12*
G04 #@! TO.P,R13,1*
G04 #@! TO.N,Net-(D1-Pad1)*
X16741758Y-43742590D03*
G04 #@! TD*
D14*
G04 #@! TO.P,R14,2*
G04 #@! TO.N,Net-(C1-Pad2)*
X36895367Y-25074840D03*
D12*
G04 #@! TO.P,R14,1*
G04 #@! TO.N,Net-(C1-Pad1)*
X29275367Y-25074840D03*
G04 #@! TD*
D14*
G04 #@! TO.P,R15,2*
G04 #@! TO.N,Net-(R15-Pad2)*
X7685367Y-11104840D03*
D12*
G04 #@! TO.P,R15,1*
G04 #@! TO.N,Net-(R10-Pad1)*
X7685367Y-18724840D03*
G04 #@! TD*
G04 #@! TO.P,R16,1*
G04 #@! TO.N,Net-(Q1-Pad1)*
X1501758Y-43742590D03*
D14*
G04 #@! TO.P,R16,2*
G04 #@! TO.N,Net-(D1-Pad1)*
X1501758Y-36122590D03*
G04 #@! TD*
G04 #@! TO.P,R23,2*
G04 #@! TO.N,Net-(R22-INITIAL1-Pad2)*
X-1712633Y-27614840D03*
D12*
G04 #@! TO.P,R23,1*
G04 #@! TO.N,Net-(D1-Pad1)*
X5907367Y-27614840D03*
G04 #@! TD*
D15*
G04 #@! TO.P,R18-PAD1,1*
G04 #@! TO.N,Net-(C9-Pad1)*
X62295367Y-7294840D03*
D16*
G04 #@! TO.P,R18-PAD1,2*
G04 #@! TO.N,Net-(R18-PAD1-Pad2)*
X62295367Y-9834840D03*
G04 #@! TO.P,R18-PAD1,3*
G04 #@! TO.N,GNDREF*
X62295367Y-12374840D03*
G04 #@! TD*
G04 #@! TO.P,R19-PAD2,3*
G04 #@! TO.N,GNDREF*
X40705367Y-6024840D03*
G04 #@! TO.P,R19-PAD2,2*
G04 #@! TO.N,Net-(R19-PAD2-Pad2)*
X40705367Y-8564840D03*
D15*
G04 #@! TO.P,R19-PAD2,1*
G04 #@! TO.N,Net-(C3-Pad1)*
X40705367Y-11104840D03*
G04 #@! TD*
G04 #@! TO.P,R20-PAD3,1*
G04 #@! TO.N,Net-(C4-Pad1)*
X57215367Y-17454840D03*
D16*
G04 #@! TO.P,R20-PAD3,2*
G04 #@! TO.N,Net-(R20-PAD3-Pad2)*
X57215367Y-14914840D03*
G04 #@! TO.P,R20-PAD3,3*
G04 #@! TO.N,GNDREF*
X57215367Y-12374840D03*
G04 #@! TD*
D15*
G04 #@! TO.P,R21-ATTEN1,1*
G04 #@! TO.N,Net-(J5-PadT)*
X12931758Y-38662590D03*
D16*
G04 #@! TO.P,R21-ATTEN1,2*
G04 #@! TO.N,Net-(R13-Pad2)*
X12931758Y-36122590D03*
G04 #@! TO.P,R21-ATTEN1,3*
G04 #@! TO.N,GNDREF*
X12931758Y-33582590D03*
G04 #@! TD*
G04 #@! TO.P,R22-INITIAL1,3*
G04 #@! TO.N,+15V*
X-3744633Y-22534840D03*
G04 #@! TO.P,R22-INITIAL1,2*
G04 #@! TO.N,Net-(R22-INITIAL1-Pad2)*
X-1204633Y-22534840D03*
D15*
G04 #@! TO.P,R22-INITIAL1,1*
G04 #@! TO.N,-15V*
X1335367Y-22534840D03*
G04 #@! TD*
D16*
G04 #@! TO.P,R4-LEVEL1,3*
G04 #@! TO.N,GNDREF*
X67375367Y-33964840D03*
G04 #@! TO.P,R4-LEVEL1,2*
G04 #@! TO.N,Net-(C12-Pad2)*
X67375367Y-36504840D03*
D15*
G04 #@! TO.P,R4-LEVEL1,1*
G04 #@! TO.N,Net-(R4-LEVEL1-Pad1)*
X67375367Y-39044840D03*
G04 #@! TD*
D10*
G04 #@! TO.P,U1,1*
G04 #@! TO.N,Net-(U1-Pad1)*
X20385367Y-41584840D03*
D11*
G04 #@! TO.P,U1,5*
G04 #@! TO.N,Net-(Q1-Pad3)*
X28005367Y-33964840D03*
G04 #@! TO.P,U1,2*
G04 #@! TO.N,Net-(R10-Pad1)*
X20385367Y-39044840D03*
G04 #@! TO.P,U1,6*
G04 #@! TO.N,Net-(C2-Pad2)*
X28005367Y-36504840D03*
G04 #@! TO.P,U1,3*
G04 #@! TO.N,Net-(R1-Pad1)*
X20385367Y-36504840D03*
G04 #@! TO.P,U1,7*
G04 #@! TO.N,-15V*
X28005367Y-39044840D03*
G04 #@! TO.P,U1,4*
G04 #@! TO.N,Net-(U1-Pad4)*
X20385367Y-33964840D03*
G04 #@! TO.P,U1,8*
G04 #@! TO.N,Net-(U1-Pad8)*
X28005367Y-41584840D03*
G04 #@! TD*
G04 #@! TO.P,U2,8*
G04 #@! TO.N,+15V*
X44515367Y-41584840D03*
G04 #@! TO.P,U2,4*
G04 #@! TO.N,-15V*
X36895367Y-33964840D03*
G04 #@! TO.P,U2,7*
G04 #@! TO.N,Net-(C2-Pad1)*
X44515367Y-39044840D03*
G04 #@! TO.P,U2,3*
G04 #@! TO.N,GNDREF*
X36895367Y-36504840D03*
G04 #@! TO.P,U2,6*
G04 #@! TO.N,Net-(C2-Pad2)*
X44515367Y-36504840D03*
G04 #@! TO.P,U2,2*
G04 #@! TO.N,Net-(C1-Pad2)*
X36895367Y-39044840D03*
G04 #@! TO.P,U2,5*
G04 #@! TO.N,GNDREF*
X44515367Y-33964840D03*
D10*
G04 #@! TO.P,U2,1*
G04 #@! TO.N,Net-(C1-Pad1)*
X36895367Y-41584840D03*
G04 #@! TD*
D17*
G04 #@! TO.P,Q1,2*
G04 #@! TO.N,Net-(D1-Pad2)*
X31981758Y-48822590D03*
G04 #@! TO.P,Q1,3*
G04 #@! TO.N,Net-(Q1-Pad3)*
X34521758Y-46282590D03*
D18*
G04 #@! TO.P,Q1,1*
G04 #@! TO.N,Net-(Q1-Pad1)*
X29441758Y-46282590D03*
G04 #@! TD*
D13*
G04 #@! TO.P,C13,1*
G04 #@! TO.N,+15V*
X21655367Y-9834840D03*
D12*
G04 #@! TO.P,C13,2*
G04 #@! TO.N,GNDREF*
X19155367Y-9834840D03*
G04 #@! TD*
G04 #@! TO.P,C14,2*
G04 #@! TO.N,-15V*
X11535367Y-9834840D03*
D13*
G04 #@! TO.P,C14,1*
G04 #@! TO.N,GNDREF*
X14035367Y-9834840D03*
G04 #@! TD*
D15*
G04 #@! TO.P,J8,1*
G04 #@! TO.N,-15V*
X14035367Y-16184840D03*
D16*
G04 #@! TO.P,J8,2*
G04 #@! TO.N,GNDREF*
X16575367Y-16184840D03*
G04 #@! TO.P,J8,3*
G04 #@! TO.N,+15V*
X19115367Y-16184840D03*
G04 #@! TD*
D15*
G04 #@! TO.P,SW1,1*
G04 #@! TO.N,Net-(C9-Pad2)*
X74995367Y-7294840D03*
D16*
G04 #@! TO.P,SW1,2*
G04 #@! TO.N,Net-(C9-Pad1)*
X72455367Y-7294840D03*
G04 #@! TD*
G04 #@! TO.P,SW2,2*
G04 #@! TO.N,Net-(C3-Pad1)*
X30545367Y-11104840D03*
D15*
G04 #@! TO.P,SW2,1*
G04 #@! TO.N,Net-(C3-Pad2)*
X30545367Y-13644840D03*
G04 #@! TD*
G04 #@! TO.P,SW3,1*
G04 #@! TO.N,Net-(C4-Pad2)*
X67375367Y-22534840D03*
D16*
G04 #@! TO.P,SW3,2*
G04 #@! TO.N,Net-(C4-Pad1)*
X64835367Y-22534840D03*
G04 #@! TD*
D19*
G04 #@! TO.P,R17-OFFSET-TRIM1,3*
G04 #@! TO.N,-15V*
X1255367Y-16184840D03*
G04 #@! TO.P,R17-OFFSET-TRIM1,2*
G04 #@! TO.N,Net-(R15-Pad2)*
X-1244633Y-11184840D03*
G04 #@! TO.P,R17-OFFSET-TRIM1,1*
G04 #@! TO.N,+15V*
X-3744633Y-16184840D03*
G04 #@! TD*
D20*
G04 #@! TO.N,Net-(C2-Pad2)*
X47475758Y-31042590D03*
X25885758Y-31042590D03*
G04 #@! TO.N,GNDREF*
X20805758Y-25454590D03*
X20805758Y-21390590D03*
X48491758Y-23422590D03*
X48491758Y-19358590D03*
G04 #@! TO.N,Net-(R10-Pad1)*
X14581508Y-27614840D03*
X9070958Y-27689790D03*
G04 #@! TO.N,-15V*
X24615758Y-53902590D03*
X24615758Y-44504590D03*
X32235758Y-40440590D03*
X32235758Y-32337990D03*
G04 #@! TO.N,+15V*
X47475758Y-52124590D03*
X47475758Y-41202590D03*
G04 #@! TD*
D21*
G04 #@! TO.N,Net-(C1-Pad2)*
X36895367Y-21264840D02*
X36895367Y-16184840D01*
X36895367Y-16184840D02*
X43245367Y-16184840D01*
X36895367Y-21264840D02*
X36895367Y-25074840D01*
X36895367Y-25074840D02*
X36895367Y-28884840D01*
X36895367Y-28884840D02*
X39815117Y-31804590D01*
X37295367Y-39044840D02*
X36895367Y-39044840D01*
X39815117Y-36525090D02*
X37295367Y-39044840D01*
X39815117Y-31804590D02*
X39815117Y-36525090D01*
G04 #@! TO.N,Net-(C1-Pad1)*
X30545367Y-25074840D02*
X34355367Y-21264840D01*
X29275367Y-25074840D02*
X30545367Y-25074840D01*
X31895367Y-28884840D02*
X30078008Y-28884840D01*
X29275367Y-28082199D02*
X29275367Y-25074840D01*
X30078008Y-28884840D02*
X29275367Y-28082199D01*
X36895367Y-41584840D02*
X37295367Y-41584840D01*
X34355367Y-16222981D02*
X34355367Y-21264840D01*
X36045758Y-14532590D02*
X34355367Y-16222981D01*
X45443758Y-15294590D02*
X44681758Y-14532590D01*
X45443758Y-16564590D02*
X45443758Y-15294590D01*
X44681758Y-14532590D02*
X36045758Y-14532590D01*
X38695367Y-41584840D02*
X41125758Y-39154449D01*
X41125758Y-39154449D02*
X41125758Y-18723590D01*
X41125758Y-18723590D02*
X41506758Y-18342590D01*
X41506758Y-18342590D02*
X43665758Y-18342590D01*
X36895367Y-41584840D02*
X38695367Y-41584840D01*
X43665758Y-18342590D02*
X45443758Y-16564590D01*
G04 #@! TO.N,Net-(C2-Pad1)*
X68645367Y-28884840D02*
X63565367Y-28884840D01*
X57215367Y-31424840D02*
X59755367Y-28884840D01*
X54675367Y-31424840D02*
X57215367Y-31424840D01*
X59755367Y-28884840D02*
X63565367Y-28884840D01*
X44915367Y-39044840D02*
X44515367Y-39044840D01*
X51735368Y-32224839D02*
X44915367Y-39044840D01*
X53875368Y-32224839D02*
X51735368Y-32224839D01*
X54675367Y-31424840D02*
X53875368Y-32224839D01*
G04 #@! TO.N,Net-(C2-Pad2)*
X59755367Y-23884840D02*
X54755367Y-23884840D01*
X44915367Y-36504840D02*
X44515367Y-36504840D01*
X54675367Y-23804840D02*
X54675367Y-26744840D01*
X54675367Y-26744840D02*
X44915367Y-36504840D01*
X27605367Y-36504840D02*
X28005367Y-36504840D01*
X47475758Y-31042590D02*
X47475758Y-28248590D01*
X51919508Y-23804840D02*
X54675367Y-23804840D01*
X47475758Y-28248590D02*
X51919508Y-23804840D01*
X25885758Y-31042590D02*
X25885758Y-34785231D01*
X25885758Y-34785231D02*
X27605367Y-36504840D01*
G04 #@! TO.N,Net-(C3-Pad2)*
X30545367Y-13644840D02*
X26735367Y-13644840D01*
X25465367Y-6024840D02*
X24195367Y-7294840D01*
X24195367Y-7294840D02*
X24195367Y-11104840D01*
X24195367Y-11104840D02*
X26735367Y-13644840D01*
X30545367Y-6024840D02*
X25465367Y-6024840D01*
G04 #@! TO.N,Net-(C3-Pad1)*
X28085367Y-8644840D02*
X30545367Y-11104840D01*
X26735367Y-8644840D02*
X28085367Y-8644840D01*
X30545367Y-11104840D02*
X40705367Y-11104840D01*
G04 #@! TO.N,Net-(C4-Pad1)*
X63565367Y-17454840D02*
X57215367Y-17454840D01*
X64835367Y-18724840D02*
X63565367Y-17454840D01*
X64835367Y-22534840D02*
X64835367Y-18724840D01*
G04 #@! TO.N,Net-(C4-Pad2)*
X78805367Y-17454840D02*
X68565367Y-17454840D01*
X67375367Y-18644840D02*
X68565367Y-17454840D01*
X67375367Y-22534840D02*
X67375367Y-18644840D01*
G04 #@! TO.N,Net-(C9-Pad1)*
X68645367Y-7294840D02*
X62295367Y-7294840D01*
X68645367Y-7294840D02*
X72455367Y-7294840D01*
G04 #@! TO.N,Net-(C9-Pad2)*
X68725367Y-12374840D02*
X68645367Y-12294840D01*
X73725367Y-12374840D02*
X68725367Y-12374840D01*
X74995367Y-11104840D02*
X73725367Y-12374840D01*
X74995367Y-7294840D02*
X74995367Y-11104840D01*
G04 #@! TO.N,Net-(C12-Pad1)*
X77665367Y-36504840D02*
X76265367Y-36504840D01*
X78805367Y-35364840D02*
X77665367Y-36504840D01*
X78805367Y-23804840D02*
X78805367Y-35364840D01*
G04 #@! TO.N,Net-(C12-Pad2)*
X67375367Y-36504840D02*
X72765367Y-36504840D01*
G04 #@! TO.N,Net-(D1-Pad1)*
X-2308242Y-36122590D02*
X1501758Y-36122590D01*
X5907367Y-27614840D02*
X5907367Y-31424840D01*
X1501758Y-37253960D02*
X5057758Y-40809960D01*
X1501758Y-36122590D02*
X1501758Y-37253960D01*
X13809128Y-40809960D02*
X16741758Y-43742590D01*
X5057758Y-40809960D02*
X13809128Y-40809960D01*
X58485367Y-39044840D02*
X56685367Y-39044840D01*
X55349758Y-42069933D02*
X55349758Y-46282590D01*
X55349758Y-46282590D02*
X51031758Y-50600590D01*
X56685367Y-39044840D02*
X55289617Y-40440590D01*
X55289617Y-40440590D02*
X55289617Y-42009792D01*
X55289617Y-42009792D02*
X55349758Y-42069933D01*
X51031758Y-50600590D02*
X-1546242Y-50600590D01*
X-1546242Y-50600590D02*
X-3578242Y-48568590D01*
X-2308242Y-37522590D02*
X-2308242Y-36122590D01*
X-4848242Y-40062590D02*
X-2308242Y-37522590D01*
X-4848242Y-47298590D02*
X-4848242Y-40062590D01*
X-3578242Y-48568590D02*
X-4848242Y-47298590D01*
X5907367Y-31716981D02*
X5907367Y-31424840D01*
X1501758Y-36122590D02*
X5907367Y-31716981D01*
G04 #@! TO.N,Net-(D1-Pad2)*
X50465367Y-41584840D02*
X50865367Y-41584840D01*
X43227617Y-48822590D02*
X50465367Y-41584840D01*
X31981758Y-48822590D02*
X43227617Y-48822590D01*
X2771758Y-48822590D02*
X-2308242Y-43742590D01*
X31981758Y-48822590D02*
X2771758Y-48822590D01*
G04 #@! TO.N,GNDREF*
X78805367Y-14914840D02*
X73725367Y-14914840D01*
X73725367Y-14914840D02*
X67375367Y-14914840D01*
X67375367Y-14914840D02*
X64835367Y-12374840D01*
X64835367Y-12374840D02*
X62295367Y-12374840D01*
X57215367Y-12374840D02*
X62295367Y-12374840D01*
X19155367Y-9834840D02*
X14035367Y-9834840D01*
X14035367Y-9834840D02*
X14035367Y-12374840D01*
X14035367Y-12374840D02*
X15305367Y-12374840D01*
X16575367Y-13644840D02*
X16575367Y-16184840D01*
X15305367Y-12374840D02*
X16575367Y-13644840D01*
X80255367Y-14914840D02*
X81143117Y-15802590D01*
X78805367Y-14914840D02*
X80255367Y-14914840D01*
X81143117Y-18927090D02*
X78805367Y-21264840D01*
X81143117Y-15802590D02*
X81143117Y-18927090D01*
X73725367Y-21264840D02*
X78805367Y-21264840D01*
X71985508Y-21264840D02*
X73725367Y-21264840D01*
X71351758Y-21898590D02*
X71985508Y-21264840D01*
X71351758Y-31042590D02*
X71351758Y-21898590D01*
X69279507Y-33114841D02*
X71351758Y-31042590D01*
X67375367Y-33964840D02*
X68225366Y-33114841D01*
X68225366Y-33114841D02*
X69279507Y-33114841D01*
X62587508Y-33964840D02*
X67375367Y-33964840D01*
X61191758Y-35360590D02*
X62587508Y-33964840D01*
X61191758Y-40678449D02*
X61191758Y-35360590D01*
X58485367Y-41584840D02*
X60285367Y-41584840D01*
X60285367Y-41584840D02*
X61191758Y-40678449D01*
X19155367Y-8703470D02*
X24131237Y-3727600D01*
X19155367Y-9834840D02*
X19155367Y-8703470D01*
X33085367Y-4574840D02*
X33085367Y-6024840D01*
X32238127Y-3727600D02*
X33085367Y-4574840D01*
X24131237Y-3727600D02*
X32238127Y-3727600D01*
X40705367Y-6024840D02*
X33085367Y-6024840D01*
X15597508Y-19994840D02*
X16575367Y-19994840D01*
X11495367Y-22534840D02*
X13057508Y-22534840D01*
X13057508Y-22534840D02*
X15597508Y-19994840D01*
X16575367Y-16184840D02*
X16575367Y-19994840D01*
X5311758Y-36122590D02*
X9121758Y-36122590D01*
X9121758Y-36122590D02*
X9121758Y-34598590D01*
X9121758Y-34598590D02*
X10137758Y-33582590D01*
X10137758Y-33582590D02*
X12931758Y-33582590D01*
X44515367Y-33964840D02*
X44515367Y-32564840D01*
X23395368Y-28084841D02*
X23395368Y-28044200D01*
X24195367Y-28884840D02*
X23395368Y-28084841D01*
X23395368Y-28044200D02*
X20805758Y-25454590D01*
X17971117Y-21390590D02*
X16575367Y-19994840D01*
X20805758Y-21390590D02*
X17971117Y-21390590D01*
X40705367Y-6024840D02*
X43540008Y-6024840D01*
X48491758Y-10976590D02*
X48491758Y-19446600D01*
X43540008Y-6024840D02*
X48491758Y-10976590D01*
X57215367Y-12374840D02*
X54967508Y-12374840D01*
X54967508Y-12374840D02*
X53063758Y-14278590D01*
X53063758Y-14278590D02*
X53063758Y-17834590D01*
X51451748Y-19446600D02*
X48491758Y-19446600D01*
X53063758Y-17834590D02*
X51451748Y-19446600D01*
X12931758Y-33582590D02*
X12931758Y-31931590D01*
X12931758Y-31931590D02*
X11788758Y-30788590D01*
X11788758Y-30788590D02*
X11788758Y-25073590D01*
X11788758Y-25073590D02*
X11788758Y-23930590D01*
X11495367Y-23736921D02*
X11495367Y-22534840D01*
X11689036Y-23930590D02*
X11495367Y-23736921D01*
X11788758Y-23930590D02*
X11689036Y-23930590D01*
X44515367Y-27398981D02*
X44515367Y-28502590D01*
X48491758Y-23422590D02*
X44515367Y-27398981D01*
X44515367Y-32564840D02*
X44515367Y-28502590D01*
X34142008Y-36504840D02*
X33886758Y-36249590D01*
X36895367Y-36504840D02*
X34142008Y-36504840D01*
X26520758Y-28883590D02*
X26901758Y-29264590D01*
X24107758Y-28883590D02*
X26520758Y-28883590D01*
X26647758Y-29010590D02*
X26901758Y-29264590D01*
X26901758Y-29264590D02*
X33886758Y-36249590D01*
G04 #@! TO.N,Net-(J4-PadT)*
X10775759Y-24441591D02*
X9375758Y-23041590D01*
X10775759Y-28626589D02*
X10775759Y-24441591D01*
X10772758Y-28629590D02*
X10775759Y-28626589D01*
X10772758Y-29010590D02*
X10772758Y-28629590D01*
X9375758Y-23041590D02*
X9375758Y-20664449D01*
X10010758Y-29772590D02*
X10772758Y-29010590D01*
X-1712633Y-31424840D02*
X4156017Y-25556190D01*
X4156017Y-25556190D02*
X5994719Y-25556190D01*
X10045367Y-19994840D02*
X11495367Y-19994840D01*
X5994719Y-25556190D02*
X7570957Y-27132428D01*
X7570957Y-27132428D02*
X7570957Y-29364789D01*
X7570957Y-29364789D02*
X7978758Y-29772590D01*
X9375758Y-20664449D02*
X10045367Y-19994840D01*
X7978758Y-29772590D02*
X10010758Y-29772590D01*
G04 #@! TO.N,Net-(J5-PadT)*
X9121758Y-38662590D02*
X12931758Y-38662590D01*
G04 #@! TO.N,Net-(J6-PadT)*
X73725367Y-26344840D02*
X73725367Y-23804840D01*
X76265367Y-28884840D02*
X73725367Y-26344840D01*
G04 #@! TO.N,Net-(Q1-Pad3)*
X29805367Y-33964840D02*
X28005367Y-33964840D01*
X34521758Y-38681231D02*
X29805367Y-33964840D01*
X34521758Y-46282590D02*
X34521758Y-38681231D01*
G04 #@! TO.N,Net-(Q1-Pad1)*
X1501758Y-43742590D02*
X5311758Y-43742590D01*
X28091758Y-46282590D02*
X29441758Y-46282590D01*
X8983128Y-46282590D02*
X28091758Y-46282590D01*
X6443128Y-43742590D02*
X8983128Y-46282590D01*
X5311758Y-43742590D02*
X6443128Y-43742590D01*
G04 #@! TO.N,Net-(R1-Pad1)*
X24195367Y-21264840D02*
X26735367Y-21264840D01*
X22037617Y-23422590D02*
X24195367Y-21264840D01*
X13947758Y-23422590D02*
X22037617Y-23422590D01*
X12931758Y-24438590D02*
X13947758Y-23422590D01*
X12931758Y-28248590D02*
X12931758Y-24438590D01*
X20551758Y-30788590D02*
X15471758Y-30788590D01*
X20385367Y-36504840D02*
X20785367Y-36504840D01*
X20785367Y-36504840D02*
X20911117Y-36630590D01*
X20911117Y-36630590D02*
X21313758Y-36630590D01*
X21313758Y-36630590D02*
X22583758Y-35360590D01*
X15471758Y-30788590D02*
X12931758Y-28248590D01*
X22583758Y-35360590D02*
X22583758Y-32820590D01*
X22583758Y-32820590D02*
X20551758Y-30788590D01*
G04 #@! TO.N,Net-(R19-PAD2-Pad2)*
X40705367Y-8564840D02*
X36895367Y-8564840D01*
G04 #@! TO.N,Net-(R20-PAD3-Pad2)*
X57215367Y-14914840D02*
X55983508Y-14914840D01*
X55983508Y-14914840D02*
X54587758Y-16310590D01*
X54587758Y-16310590D02*
X54587758Y-20374590D01*
X53697508Y-21264840D02*
X44515367Y-21264840D01*
X54587758Y-20374590D02*
X53697508Y-21264840D01*
G04 #@! TO.N,Net-(R4-LEVEL1-Pad1)*
X66105367Y-39044840D02*
X63565367Y-36504840D01*
X67375367Y-39044840D02*
X66105367Y-39044840D01*
G04 #@! TO.N,Net-(R18-PAD1-Pad2)*
X53023117Y-9834840D02*
X50865367Y-11992590D01*
X62295367Y-9834840D02*
X53023117Y-9834840D01*
X50865367Y-11992590D02*
X50865367Y-16184840D01*
G04 #@! TO.N,Net-(R10-Pad1)*
X16575367Y-27614840D02*
X14581508Y-27614840D01*
X7685367Y-19856210D02*
X7685367Y-18724840D01*
X7685367Y-23188293D02*
X7685367Y-19856210D01*
X22185367Y-39044840D02*
X23599758Y-37630449D01*
X20385367Y-39044840D02*
X22185367Y-39044840D01*
X23599758Y-37630449D02*
X23615899Y-37630449D01*
X24361758Y-36884590D02*
X24361758Y-32312590D01*
X19664008Y-27614840D02*
X16575367Y-27614840D01*
X23615899Y-37630449D02*
X24361758Y-36884590D01*
X24361758Y-32312590D02*
X19664008Y-27614840D01*
X7685367Y-23188293D02*
X7685367Y-23205399D01*
X7685367Y-23205399D02*
X9070958Y-24590990D01*
X9070958Y-24590990D02*
X9070958Y-27689790D01*
G04 #@! TO.N,Net-(R13-Pad2)*
X12931758Y-36122590D02*
X16741758Y-36122590D01*
G04 #@! TO.N,Net-(R15-Pad2)*
X7605367Y-11184840D02*
X7685367Y-11104840D01*
X-1244633Y-11184840D02*
X7605367Y-11184840D01*
G04 #@! TO.N,Net-(R22-INITIAL1-Pad2)*
X-912634Y-26814841D02*
X-912634Y-25376998D01*
X-1712633Y-27614840D02*
X-912634Y-26814841D01*
X-1204633Y-25084999D02*
X-1204633Y-22534840D01*
X-912634Y-25376998D02*
X-1204633Y-25084999D01*
G04 #@! TO.N,-15V*
X1335367Y-22534840D02*
X1335367Y-16264840D01*
X1335367Y-16264840D02*
X1255367Y-16184840D01*
X12585367Y-16184840D02*
X14035367Y-16184840D01*
X11535367Y-15134840D02*
X12585367Y-16184840D01*
X11509618Y-15014841D02*
X11535367Y-15040590D01*
X2425366Y-15014841D02*
X11509618Y-15014841D01*
X1255367Y-16184840D02*
X2425366Y-15014841D01*
X11535367Y-9834840D02*
X11535367Y-15040590D01*
X11535367Y-15040590D02*
X11535367Y-15134840D01*
X58485367Y-44124840D02*
X58485367Y-47210981D01*
X58485367Y-47210981D02*
X51793758Y-53902590D01*
X51793758Y-53902590D02*
X24615758Y-53902590D01*
X25249508Y-39044840D02*
X28005367Y-39044840D01*
X24615758Y-39678590D02*
X25249508Y-39044840D01*
X28005367Y-39044840D02*
X30078008Y-39044840D01*
X30078008Y-39044840D02*
X31473758Y-40440590D01*
X31473758Y-40440590D02*
X32235758Y-40440590D01*
X-8658242Y-49838590D02*
X-4594242Y-53902590D01*
X1255367Y-16184840D02*
X-1666883Y-13262590D01*
X-1666883Y-13262590D02*
X-5610242Y-13262590D01*
X-5610242Y-13262590D02*
X-6880242Y-14532590D01*
X-4594242Y-53902590D02*
X24615758Y-53902590D01*
X-6880242Y-14532590D02*
X-6880242Y-31804590D01*
X-6880242Y-31804590D02*
X-8658242Y-33582590D01*
X-8658242Y-33582590D02*
X-8658242Y-49838590D01*
X24615758Y-42472590D02*
X24615758Y-44504590D01*
X24615758Y-42472590D02*
X24615758Y-39678590D01*
X35268517Y-32337990D02*
X32235758Y-32337990D01*
X36895367Y-33964840D02*
X35268517Y-32337990D01*
G04 #@! TO.N,+15V*
X-3744633Y-16184840D02*
X-3744633Y-22534840D01*
X21655367Y-13644840D02*
X19115367Y-16184840D01*
X21655367Y-9834840D02*
X21655367Y-13644840D01*
X44515367Y-41584840D02*
X46839508Y-41584840D01*
X46839508Y-41584840D02*
X47729758Y-40694590D01*
X47729758Y-40694590D02*
X47729758Y-39932590D01*
X48617508Y-39044840D02*
X50865367Y-39044840D01*
X47729758Y-39932590D02*
X48617508Y-39044840D01*
X42903758Y-31042590D02*
X42903758Y-22660590D01*
X42141758Y-31804590D02*
X42903758Y-31042590D01*
X42903758Y-22660590D02*
X42395758Y-22152590D01*
X42141758Y-41011231D02*
X42141758Y-31804590D01*
X44515367Y-41584840D02*
X42715367Y-41584840D01*
X42715367Y-41584840D02*
X42141758Y-41011231D01*
X42395758Y-22152590D02*
X42395758Y-20882590D01*
X42395758Y-20882590D02*
X43919758Y-19358590D01*
X44427758Y-19358590D02*
X45443758Y-18342590D01*
X43919758Y-19358590D02*
X44427758Y-19358590D01*
X45189758Y-18596590D02*
X45443758Y-18342590D01*
X24490008Y-16184840D02*
X19115367Y-16184840D01*
X25885758Y-17580590D02*
X24490008Y-16184840D01*
X46967758Y-16818590D02*
X46967758Y-15040590D01*
X45443758Y-18342590D02*
X46967758Y-16818590D01*
X46967758Y-15040590D02*
X45189758Y-13262590D01*
X45189758Y-13262590D02*
X35537758Y-13262590D01*
X35537758Y-13262590D02*
X31219758Y-17580590D01*
X31219758Y-17580590D02*
X25885758Y-17580590D01*
X-3744633Y-27232590D02*
X-3744633Y-22534840D01*
X-3744633Y-32478981D02*
X-3744633Y-27232590D01*
X-6880242Y-35614590D02*
X-3744633Y-32478981D01*
X-6880242Y-48822590D02*
X-6880242Y-35614590D01*
X-3578242Y-52124590D02*
X-6880242Y-48822590D01*
X47475758Y-52124590D02*
X-3578242Y-52124590D01*
G04 #@! TD*
M02*
