M48
;DRILL file {KiCad (5.0.2)-1} date 03/03/2019 17:49:32
;FORMAT={-:-/ absolute / metric / decimal}
FMAT,2
METRIC,TZ
T1C0.800
T2C0.900
T3C1.000
%
G90
G05
T1
X9.071Y-27.69
X14.582Y-27.615
X20.806Y-21.391
X20.806Y-25.455
X24.616Y-44.505
X24.616Y-53.903
X25.886Y-31.043
X32.236Y-32.338
X32.236Y-40.441
X47.476Y-31.043
X47.476Y-41.203
X47.476Y-52.125
X48.492Y-19.359
X48.492Y-23.423
X20.385Y-33.965
X20.385Y-36.505
X20.385Y-39.045
X20.385Y-41.585
X28.005Y-33.965
X28.005Y-36.505
X28.005Y-39.045
X28.005Y-41.585
X7.685Y-11.105
X7.685Y-18.725
X1.502Y-36.123
X1.502Y-43.743
X59.755Y-23.885
X59.755Y-28.885
X63.565Y-17.455
X68.565Y-17.455
X29.275Y-25.075
X36.895Y-25.075
X31.895Y-28.885
X36.895Y-28.885
X50.865Y-36.505
X50.865Y-39.045
X50.865Y-41.585
X50.865Y-44.125
X58.485Y-36.505
X58.485Y-39.045
X58.485Y-41.585
X58.485Y-44.125
X16.742Y-36.123
X16.742Y-43.743
X26.735Y-21.265
X34.355Y-21.265
X19.155Y-9.835
X21.655Y-9.835
X-2.308Y-36.123
X-2.308Y-43.743
X16.575Y-19.995
X16.575Y-27.615
X43.245Y-16.185
X50.865Y-16.185
X68.645Y-28.885
X76.265Y-28.885
X11.535Y-9.835
X14.035Y-9.835
X36.895Y-33.965
X36.895Y-36.505
X36.895Y-39.045
X36.895Y-41.585
X44.515Y-33.965
X44.515Y-36.505
X44.515Y-39.045
X44.515Y-41.585
X68.645Y-7.295
X68.645Y-12.295
X36.895Y-8.565
X36.895Y-16.185
X36.895Y-21.265
X44.515Y-21.265
X-1.713Y-31.425
X5.907Y-31.425
X29.442Y-46.283
X31.982Y-48.823
X34.522Y-46.283
X26.735Y-8.645
X26.735Y-13.645
X72.765Y-36.505
X76.265Y-36.505
X24.108Y-21.264
X24.108Y-28.884
X5.312Y-36.123
X5.312Y-43.743
X63.565Y-28.885
X63.565Y-36.505
X54.675Y-23.805
X54.675Y-31.425
X-1.713Y-27.615
X5.907Y-27.615
T2
X-3.745Y-16.185
X-1.245Y-11.185
X1.255Y-16.185
T3
X57.215Y-12.375
X57.215Y-14.915
X57.215Y-17.455
X12.932Y-33.583
X12.932Y-36.123
X12.932Y-38.663
X40.705Y-6.025
X40.705Y-8.565
X40.705Y-11.105
X11.495Y-19.995
X11.495Y-22.535
X78.805Y-14.915
X78.805Y-17.455
X73.725Y-21.265
X73.725Y-23.805
X-3.745Y-22.535
X-1.205Y-22.535
X1.335Y-22.535
X30.545Y-11.105
X30.545Y-13.645
X9.122Y-36.123
X9.122Y-38.663
X62.295Y-7.295
X62.295Y-9.835
X62.295Y-12.375
X14.035Y-16.185
X16.575Y-16.185
X19.115Y-16.185
X73.725Y-12.375
X73.725Y-14.915
X67.375Y-33.965
X67.375Y-36.505
X67.375Y-39.045
X78.805Y-21.265
X78.805Y-23.805
X64.835Y-22.535
X67.375Y-22.535
X30.545Y-6.025
X33.085Y-6.025
X72.455Y-7.295
X74.995Y-7.295
T0
M30
