M48
INCH
T01C0.0314
T02C0.0400
T03C0.1220
%
T01
X+016950Y+014486
X+016950Y+011842
X+014491Y+002467
X+003850Y+001336
X+001881Y+001336
X+001556Y+002336
X+005556Y+002336
X+005574Y+003425
X+001574Y+003425
X+008050Y+002836
X+007550Y+002336
X+007050Y+002836
X+008464Y+003976
X+006496Y+003976
X+005574Y+004409
X+001574Y+004409
X+006692Y+006929
X+006692Y+004960
X+005556Y+005442
X+001556Y+005442
X+005556Y+006442
X+001556Y+006442
X+009556Y+005592
X+009556Y+004592
X+009556Y+003592
X+009556Y+002592
X+012556Y+002592
X+012556Y+003592
X+012556Y+004592
X+012556Y+005592
X+006700Y+009948
X+006700Y+008948
X+007950Y+010736
X+007950Y+008736
X+007950Y+009736
X+000950Y+010636
X+004950Y+010636
X+005511Y+008700
X+003543Y+008700
X+005556Y+007342
X+001556Y+007342
X+012056Y+008842
X+016056Y+008842
X+016056Y+010842
X+012056Y+010842
X+015354Y+009881
X+017322Y+009881
X+016879Y+006179
X+018879Y+006179
X+017879Y+006179
X+021535Y+004960
X+019566Y+004960
X+013110Y+014803
X+015078Y+014803
X+001181Y+008897
X+002165Y+008897
X+023700Y+014486
X+022200Y+014486
X+019215Y+002467
X+018816Y+012072
X+019316Y+011572
X+018816Y+011072
X+024212Y+006929
X+020212Y+006929
X+018306Y+004842
X+014306Y+004842
X+015306Y+007842
X+011306Y+007842
X+018950Y+009736
X+022950Y+009736
X+016056Y+012842
X+012056Y+012842
X+019000Y+008736
X+023000Y+008736
X+024200Y+002486
X+020200Y+002486
X+016056Y+011842
X+012056Y+011842
X+012056Y+013842
X+016056Y+013842
X+009950Y+010736
X+009950Y+008736
X+009950Y+009736
X+004950Y+012586
X+000950Y+012586
X+004950Y+013586
X+000950Y+013586
X+000950Y+011586
X+004950Y+011586
X+000950Y+014586
X+004950Y+014586
X+015672Y+003598
X+016853Y+003598
X+018034Y+003598
X+015672Y+002467
X+016853Y+002467
X+018034Y+002467
X+015987Y+000874
X+017537Y+000874
X+019215Y+000986
X+014500Y+000886
X+024200Y+003486
X+020200Y+003486
X+013976Y+005748
X+015944Y+005748
X+021910Y+001236
X+021123Y+001236
T02
X+019200Y+013486
X+019200Y+014864
X+024250Y+012486
X+020250Y+012486
X+024000Y+005736
X+024000Y+004736
X+010950Y+013486
X+009950Y+013486
X+008950Y+013486
X+007950Y+013486
X+006950Y+013486
X+005950Y+013486
T03
X+021771Y+010984
X+000826Y+000826
M30
